<svg width="91" height="72" viewBox="0 0 91 72" fill="none" xmlns="http://www.w3.org/2000/svg">
<path d="M69.5 37C69.5 56.0538 54.0538 71.5 35 71.5C15.9462 71.5 0.5 56.0538 0.5 37C0.5 17.9462 15.9462 2.5 35 2.5C54.0538 2.5 69.5 17.9462 69.5 37Z" stroke="#292A2C"/>
<path d="M72 35C72 54.33 56.33 70 37 70C17.67 70 2 54.33 2 35C2 15.67 17.67 0 37 0C56.33 0 72 15.67 72 35Z" fill="#3643E5"/>
<path d="M21.872 35.096V45H19.632V35.544C19.632 34.6693 19.4187 33.8747 18.992 33.16C18.5653 32.4453 17.9946 31.8747 17.28 31.448C16.5653 31.0213 15.7706 30.808 14.896 30.808C14.032 30.808 13.2373 31.0213 12.512 31.448C11.7973 31.8747 11.2266 32.4453 10.8 33.16C10.3733 33.8747 10.16 34.6693 10.16 35.544V45H7.91998V21H10.16V31.208C10.7253 30.3973 11.4613 29.752 12.368 29.272C13.2746 28.792 14.2613 28.552 15.328 28.552C16.5333 28.552 17.632 28.8453 18.624 29.432C19.616 30.0187 20.4053 30.808 20.992 31.8C21.5787 32.792 21.872 33.8907 21.872 35.096Z" fill="white"/>
<path d="M31.8037 45.416C30.3317 45.416 28.9877 45.0373 27.7717 44.28C26.5664 43.5227 25.6011 42.5093 24.8757 41.24C24.1611 39.96 23.8037 38.5467 23.8037 37C23.8037 35.8267 24.0117 34.7333 24.4277 33.72C24.8437 32.696 25.4144 31.8 26.1397 31.032C26.8757 30.2533 27.7291 29.6453 28.6997 29.208C29.6704 28.7707 30.7051 28.552 31.8037 28.552C32.9877 28.552 34.0757 28.7867 35.0677 29.256C36.0704 29.7253 36.9291 30.3813 37.6437 31.224C38.3691 32.0667 38.9131 33.0533 39.2757 34.184C39.6491 35.3147 39.8037 36.536 39.7397 37.848H26.1717C26.2997 38.8613 26.6197 39.768 27.1317 40.568C27.6544 41.368 28.3157 42.0027 29.1157 42.472C29.9264 42.9307 30.8224 43.1653 31.8037 43.176C32.8704 43.176 33.8304 42.8987 34.6837 42.344C35.5477 41.7893 36.2411 41.0267 36.7637 40.056L39.0357 40.584C38.3957 42.0027 37.4304 43.1653 36.1397 44.072C34.8491 44.968 33.4037 45.416 31.8037 45.416ZM26.1077 36.04H37.4837C37.4091 35.048 37.1051 34.1413 36.5717 33.32C36.0491 32.488 35.3717 31.8267 34.5397 31.336C33.7077 30.8347 32.7957 30.584 31.8037 30.584C30.8117 30.584 29.9051 30.8293 29.0837 31.32C28.2624 31.8 27.5904 32.456 27.0677 33.288C26.5451 34.1093 26.2251 35.0267 26.1077 36.04Z" fill="white"/>
<path d="M55.4782 29H57.7182V45H55.4782L55.3982 42.024C54.8756 43.0373 54.1449 43.8587 53.2062 44.488C52.2676 45.1067 51.1476 45.416 49.8462 45.416C48.6729 45.416 47.5742 45.1973 46.5502 44.76C45.5262 44.312 44.6249 43.6987 43.8462 42.92C43.0676 42.1413 42.4596 41.24 42.0222 40.216C41.5849 39.192 41.3662 38.0933 41.3662 36.92C41.3662 35.768 41.5796 34.6853 42.0062 33.672C42.4436 32.6587 43.0409 31.768 43.7982 31C44.5662 30.232 45.4516 29.6347 46.4542 29.208C47.4676 28.7707 48.5502 28.552 49.7022 28.552C51.0356 28.552 52.1982 28.872 53.1902 29.512C54.1822 30.1413 54.9716 30.968 55.5582 31.992L55.4782 29ZM49.7982 43.24C50.9396 43.24 51.9209 42.9627 52.7422 42.408C53.5636 41.8427 54.1929 41.0853 54.6302 40.136C55.0782 39.1867 55.3022 38.1413 55.3022 37C55.3022 35.8267 55.0782 34.7707 54.6302 33.832C54.1822 32.8827 53.5476 32.1307 52.7262 31.576C51.9049 31.0213 50.9289 30.744 49.7982 30.744C48.6676 30.744 47.6329 31.0267 46.6942 31.592C45.7662 32.1467 45.0249 32.8987 44.4702 33.848C43.9262 34.7973 43.6542 35.848 43.6542 37C43.6542 38.1627 43.9369 39.2187 44.5022 40.168C45.0676 41.1067 45.8142 41.8533 46.7422 42.408C47.6809 42.9627 48.6996 43.24 49.7982 43.24Z" fill="white"/>
<path d="M60.92 45V29H63.16V31.208C63.7253 30.3973 64.4613 29.752 65.368 29.272C66.2747 28.792 67.2613 28.552 68.328 28.552C68.9467 28.552 69.544 28.632 70.12 28.792L69.208 31.016C68.76 30.8773 68.3227 30.808 67.896 30.808C67.032 30.808 66.2373 31.0213 65.512 31.448C64.7973 31.8747 64.2267 32.4453 63.8 33.16C63.3733 33.8747 63.16 34.6693 63.16 35.544V45H60.92Z" fill="white"/>
<path d="M81.896 45.416C80.104 45.416 78.5306 44.9787 77.176 44.104C75.832 43.2293 74.7866 42.056 74.04 40.584C73.2933 39.1013 72.92 37.4587 72.92 35.656V22.6H76.824V35.656C76.824 36.7227 77.0213 37.704 77.416 38.6C77.8213 39.4853 78.3973 40.1947 79.144 40.728C79.9013 41.2507 80.8187 41.512 81.896 41.512C82.984 41.512 83.9013 41.2507 84.648 40.728C85.3947 40.1947 85.96 39.4853 86.344 38.6C86.7387 37.704 86.936 36.7227 86.936 35.656V22.6H90.84V35.656C90.84 37.0107 90.6266 38.28 90.2 39.464C89.7733 40.6373 89.1653 41.672 88.376 42.568C87.5867 43.464 86.6427 44.1627 85.544 44.664C84.456 45.1653 83.24 45.416 81.896 45.416Z" fill="#292A2C"/>
</svg>
